<svg xmlns="http://www.w3.org/2000/svg" xmlns:xlink="http://www.w3.org/1999/xlink" width="500" zoomAndPan="magnify" viewBox="0 0 375 374.999991" height="500" preserveAspectRatio="xMidYMid meet" version="1.0"><defs><g/></defs><g fill="#2563eb" fill-opacity="1"><g transform="translate(72.202569, 318.74337)"><g><path d="M 30.828125 -244.9375 L 107.046875 -244.9375 C 139.660156 -244.9375 164.34375 -240.351562 181.09375 -231.1875 C 197.851562 -222.03125 206.234375 -205.953125 206.234375 -182.953125 C 206.234375 -173.679688 204.753906 -165.300781 201.796875 -157.8125 C 198.835938 -150.332031 194.5625 -144.191406 188.96875 -139.390625 C 183.382812 -134.585938 176.578125 -131.457031 168.546875 -130 L 168.546875 -128.328125 C 176.691406 -126.648438 184.054688 -123.773438 190.640625 -119.703125 C 197.234375 -115.628906 202.515625 -109.707031 206.484375 -101.9375 C 210.453125 -94.175781 212.4375 -83.875 212.4375 -71.03125 C 212.4375 -56.175781 208.804688 -43.441406 201.546875 -32.828125 C 194.285156 -22.222656 183.925781 -14.097656 170.46875 -8.453125 C 157.007812 -2.816406 141.007812 0 122.46875 0 L 30.828125 0 Z M 82.765625 -147.9375 L 112.921875 -147.9375 C 127.992188 -147.9375 138.429688 -150.304688 144.234375 -155.046875 C 150.046875 -159.796875 152.953125 -166.804688 152.953125 -176.078125 C 152.953125 -185.460938 149.519531 -192.191406 142.65625 -196.265625 C 135.789062 -200.335938 124.925781 -202.375 110.0625 -202.375 L 82.765625 -202.375 Z M 82.765625 -106.71875 L 82.765625 -42.890625 L 116.609375 -42.890625 C 132.242188 -42.890625 143.128906 -45.90625 149.265625 -51.9375 C 155.410156 -57.96875 158.484375 -66.066406 158.484375 -76.234375 C 158.484375 -82.265625 157.144531 -87.566406 154.46875 -92.140625 C 151.789062 -96.722656 147.296875 -100.296875 140.984375 -102.859375 C 134.671875 -105.429688 125.984375 -106.71875 114.921875 -106.71875 Z M 82.765625 -106.71875 "/></g></g></g></svg>